<svg xmlns="http://www.w3.org/2000/svg" xmlns:xlink="http://www.w3.org/1999/xlink" contentStyleType="text/css" data-diagram-type="CLASS" height="558px" preserveAspectRatio="none" style="width:1181px;height:558px;background:#1E1E1E;" version="1.1" viewBox="0 0 1181 558" width="1181px" zoomAndPan="magnify"><defs/><g><rect fill="#1E1E1E" height="558" style="stroke:none;stroke-width:1;" width="1181" x="0" y="0"/><!--class Item--><g class="entity" data-entity="Item" data-source-line="17" data-uid="ent0002" id="entity_Item"><rect fill="#2D2D30" height="97.4648" rx="2.5" ry="2.5" style="stroke:#007ACC;stroke-width:0.5;" width="237.2236" x="203.13" y="15.24"/><ellipse cx="302.422" cy="31.24" fill="#ADD1B2" rx="11" ry="11" style="stroke:#181818;stroke-width:1;"/><path d="M304.8951,37.3831 Q304.3141,37.6819 303.6749,37.8313 Q303.0358,37.9807 302.3302,37.9807 Q299.8234,37.9807 298.5035,36.3289 Q297.1837,34.677 297.1837,31.5559 Q297.1837,28.4265 298.5035,26.7747 Q299.8234,25.1228 302.3302,25.1228 Q303.0358,25.1228 303.6832,25.2722 Q304.3307,25.4216 304.8951,25.7205 L304.8951,28.4431 Q304.2643,27.8621 303.6708,27.5923 Q303.0773,27.3225 302.4464,27.3225 Q301.1017,27.3225 300.4169,28.3892 Q299.7321,29.4558 299.7321,31.5559 Q299.7321,33.6477 300.4169,34.7144 Q301.1017,35.781 302.4464,35.781 Q303.0773,35.781 303.6708,35.5112 Q304.2643,35.2415 304.8951,34.6604 Z " fill="#000000"/><text fill="#CCCCCC" font-family="sans-serif" font-size="14" lengthAdjust="spacing" textLength="30.1396" x="322.922" y="36.531">Item</text><line style="stroke:#007ACC;stroke-width:0.5;" x1="204.13" x2="439.3536" y1="47.24" y2="47.24"/><polygon fill="none" points="214.13,55.9841,218.13,59.9841,214.13,63.9841,210.13,59.9841" style="stroke:#B38D22;stroke-width:1;"/><text fill="#CCCCCC" font-family="sans-serif" font-size="14" lengthAdjust="spacing" textLength="86.1191" x="223.13" y="64.7752">name: String</text><polygon fill="none" points="214.13,72.4724,218.13,76.4724,214.13,80.4724,210.13,76.4724" style="stroke:#B38D22;stroke-width:1;"/><text fill="#CCCCCC" font-family="sans-serif" font-size="14" lengthAdjust="spacing" textLength="80.7051" x="223.13" y="81.2634">damage: int</text><polygon fill="none" points="214.13,88.9607,218.13,92.9607,214.13,96.9607,210.13,92.9607" style="stroke:#B38D22;stroke-width:1;"/><text fill="#CCCCCC" font-family="sans-serif" font-size="14" lengthAdjust="spacing" textLength="211.2236" x="223.13" y="97.7517">defence: int ' spell defence agg</text><line style="stroke:#007ACC;stroke-width:0.5;" x1="204.13" x2="439.3536" y1="104.7048" y2="104.7048"/></g><!--class Armour--><g class="entity" data-entity="Armour" data-source-line="23" data-uid="ent0003" id="entity_Armour"><rect fill="#2D2D30" height="48" rx="2.5" ry="2.5" style="stroke:#007ACC;stroke-width:0.5;" width="83.4746" x="7" y="263.39"/><ellipse cx="22" cy="279.39" fill="#ADD1B2" rx="11" ry="11" style="stroke:#181818;stroke-width:1;"/><path d="M24.4731,285.5331 Q23.8921,285.8319 23.2529,285.9813 Q22.6138,286.1307 21.9082,286.1307 Q19.4014,286.1307 18.0815,284.4789 Q16.7617,282.827 16.7617,279.7059 Q16.7617,276.5765 18.0815,274.9247 Q19.4014,273.2728 21.9082,273.2728 Q22.6138,273.2728 23.2612,273.4222 Q23.9087,273.5716 24.4731,273.8705 L24.4731,276.5931 Q23.8423,276.0121 23.2488,275.7423 Q22.6553,275.4725 22.0244,275.4725 Q20.6797,275.4725 19.9949,276.5392 Q19.3101,277.6058 19.3101,279.7059 Q19.3101,281.7977 19.9949,282.8644 Q20.6797,283.931 22.0244,283.931 Q22.6553,283.931 23.2488,283.6612 Q23.8423,283.3915 24.4731,282.8104 Z " fill="#000000"/><text fill="#CCCCCC" font-family="sans-serif" font-size="14" lengthAdjust="spacing" textLength="51.4746" x="36" y="284.681">Armour</text><line style="stroke:#007ACC;stroke-width:0.5;" x1="8" x2="89.4746" y1="295.39" y2="295.39"/><line style="stroke:#007ACC;stroke-width:0.5;" x1="8" x2="89.4746" y1="303.39" y2="303.39"/></g><!--class SpellWeapon--><g class="entity" data-entity="SpellWeapon" data-source-line="27" data-uid="ent0004" id="entity_SpellWeapon"><rect fill="#2D2D30" height="48" rx="2.5" ry="2.5" style="stroke:#007ACC;stroke-width:0.5;" width="117.8525" x="125.81" y="263.39"/><ellipse cx="140.81" cy="279.39" fill="#ADD1B2" rx="11" ry="11" style="stroke:#181818;stroke-width:1;"/><path d="M143.2831,285.5331 Q142.7021,285.8319 142.0629,285.9813 Q141.4238,286.1307 140.7182,286.1307 Q138.2114,286.1307 136.8915,284.4789 Q135.5717,282.827 135.5717,279.7059 Q135.5717,276.5765 136.8915,274.9247 Q138.2114,273.2728 140.7182,273.2728 Q141.4238,273.2728 142.0712,273.4222 Q142.7187,273.5716 143.2831,273.8705 L143.2831,276.5931 Q142.6523,276.0121 142.0588,275.7423 Q141.4653,275.4725 140.8344,275.4725 Q139.4897,275.4725 138.8049,276.5392 Q138.1201,277.6058 138.1201,279.7059 Q138.1201,281.7977 138.8049,282.8644 Q139.4897,283.931 140.8344,283.931 Q141.4653,283.931 142.0588,283.6612 Q142.6523,283.3915 143.2831,282.8104 Z " fill="#000000"/><text fill="#CCCCCC" font-family="sans-serif" font-size="14" lengthAdjust="spacing" textLength="85.8525" x="154.81" y="284.681">SpellWeapon</text><line style="stroke:#007ACC;stroke-width:0.5;" x1="126.81" x2="242.6625" y1="295.39" y2="295.39"/><line style="stroke:#007ACC;stroke-width:0.5;" x1="126.81" x2="242.6625" y1="303.39" y2="303.39"/></g><!--class Weapon--><g class="entity" data-entity="Weapon" data-source-line="29" data-uid="ent0005" id="entity_Weapon"><rect fill="#2D2D30" height="48" rx="2.5" ry="2.5" style="stroke:#007ACC;stroke-width:0.5;" width="85.6074" x="278.93" y="263.39"/><ellipse cx="293.93" cy="279.39" fill="#ADD1B2" rx="11" ry="11" style="stroke:#181818;stroke-width:1;"/><path d="M296.4031,285.5331 Q295.8221,285.8319 295.1829,285.9813 Q294.5438,286.1307 293.8382,286.1307 Q291.3314,286.1307 290.0115,284.4789 Q288.6917,282.827 288.6917,279.7059 Q288.6917,276.5765 290.0115,274.9247 Q291.3314,273.2728 293.8382,273.2728 Q294.5438,273.2728 295.1912,273.4222 Q295.8387,273.5716 296.4031,273.8705 L296.4031,276.5931 Q295.7723,276.0121 295.1788,275.7423 Q294.5853,275.4725 293.9544,275.4725 Q292.6097,275.4725 291.9249,276.5392 Q291.2401,277.6058 291.2401,279.7059 Q291.2401,281.7977 291.9249,282.8644 Q292.6097,283.931 293.9544,283.931 Q294.5853,283.931 295.1788,283.6612 Q295.7723,283.3915 296.4031,282.8104 Z " fill="#000000"/><text fill="#CCCCCC" font-family="sans-serif" font-size="14" lengthAdjust="spacing" textLength="53.6074" x="307.93" y="284.681">Weapon</text><line style="stroke:#007ACC;stroke-width:0.5;" x1="279.93" x2="363.5374" y1="295.39" y2="295.39"/><line style="stroke:#007ACC;stroke-width:0.5;" x1="279.93" x2="363.5374" y1="303.39" y2="303.39"/></g><!--class Spell--><g class="entity" data-entity="Spell" data-source-line="32" data-uid="ent0006" id="entity_Spell"><rect fill="#2D2D30" height="48" rx="2.5" ry="2.5" style="stroke:#007ACC;stroke-width:0.5;" width="64.2451" x="399.61" y="263.39"/><ellipse cx="414.61" cy="279.39" fill="#ADD1B2" rx="11" ry="11" style="stroke:#181818;stroke-width:1;"/><path d="M417.0831,285.5331 Q416.5021,285.8319 415.8629,285.9813 Q415.2238,286.1307 414.5182,286.1307 Q412.0114,286.1307 410.6915,284.4789 Q409.3717,282.827 409.3717,279.7059 Q409.3717,276.5765 410.6915,274.9247 Q412.0114,273.2728 414.5182,273.2728 Q415.2238,273.2728 415.8712,273.4222 Q416.5187,273.5716 417.0831,273.8705 L417.0831,276.5931 Q416.4523,276.0121 415.8588,275.7423 Q415.2653,275.4725 414.6344,275.4725 Q413.2897,275.4725 412.6049,276.5392 Q411.9201,277.6058 411.9201,279.7059 Q411.9201,281.7977 412.6049,282.8644 Q413.2897,283.931 414.6344,283.931 Q415.2653,283.931 415.8588,283.6612 Q416.4523,283.3915 417.0831,282.8104 Z " fill="#000000"/><text fill="#CCCCCC" font-family="sans-serif" font-size="14" lengthAdjust="spacing" textLength="32.2451" x="428.61" y="284.681">Spell</text><line style="stroke:#007ACC;stroke-width:0.5;" x1="400.61" x2="462.8551" y1="295.39" y2="295.39"/><line style="stroke:#007ACC;stroke-width:0.5;" x1="400.61" x2="462.8551" y1="303.39" y2="303.39"/></g><!--class SpellBook--><g class="entity" data-entity="SpellBook" data-source-line="35" data-uid="ent0007" id="entity_SpellBook"><rect fill="#2D2D30" height="64.4883" rx="2.5" ry="2.5" style="stroke:#007ACC;stroke-width:0.5;" width="145.0889" x="499.19" y="255.15"/><ellipse cx="535.5241" cy="271.15" fill="#ADD1B2" rx="11" ry="11" style="stroke:#181818;stroke-width:1;"/><path d="M537.9973,277.2931 Q537.4162,277.5919 536.7771,277.7413 Q536.1379,277.8907 535.4323,277.8907 Q532.9255,277.8907 531.6057,276.2389 Q530.2858,274.587 530.2858,271.4659 Q530.2858,268.3365 531.6057,266.6847 Q532.9255,265.0328 535.4323,265.0328 Q536.1379,265.0328 536.7854,265.1822 Q537.4328,265.3316 537.9973,265.6305 L537.9973,268.3531 Q537.3664,267.7721 536.7729,267.5023 Q536.1794,267.2325 535.5485,267.2325 Q534.2038,267.2325 533.519,268.2992 Q532.8342,269.3658 532.8342,271.4659 Q532.8342,273.5577 533.519,274.6244 Q534.2038,275.691 535.5485,275.691 Q536.1794,275.691 536.7729,275.4212 Q537.3664,275.1515 537.9973,274.5704 Z " fill="#000000"/><text fill="#CCCCCC" font-family="sans-serif" font-size="14" lengthAdjust="spacing" textLength="65.6797" x="554.265" y="276.441">SpellBook</text><line style="stroke:#007ACC;stroke-width:0.5;" x1="500.19" x2="643.2789" y1="287.15" y2="287.15"/><ellipse cx="510.19" cy="300.8941" fill="none" rx="3" ry="3" style="stroke:#038048;stroke-width:1;"/><text fill="#CCCCCC" font-family="sans-serif" font-size="14" lengthAdjust="spacing" textLength="119.0889" x="519.19" y="304.6852">spell: List&lt;Spell&gt;</text><line style="stroke:#007ACC;stroke-width:0.5;" x1="500.19" x2="643.2789" y1="311.6383" y2="311.6383"/></g><!--class Inventory--><g class="entity" data-entity="Inventory" data-source-line="39" data-uid="ent0008" id="entity_Inventory"><rect fill="#2D2D30" height="113.9531" rx="2.5" ry="2.5" style="stroke:#007ACC;stroke-width:0.5;" width="237.9141" x="807.78" y="7"/><ellipse cx="890.8196" cy="23" fill="#ADD1B2" rx="11" ry="11" style="stroke:#181818;stroke-width:1;"/><path d="M893.2927,29.1431 Q892.7116,29.4419 892.0725,29.5913 Q891.4333,29.7407 890.7278,29.7407 Q888.2209,29.7407 886.9011,28.0889 Q885.5813,26.437 885.5813,23.3159 Q885.5813,20.1865 886.9011,18.5347 Q888.2209,16.8828 890.7278,16.8828 Q891.4333,16.8828 892.0808,17.0322 Q892.7282,17.1816 893.2927,17.4805 L893.2927,20.2031 Q892.6618,19.6221 892.0683,19.3523 Q891.4748,19.0825 890.844,19.0825 Q889.4992,19.0825 888.8144,20.1492 Q888.1296,21.2158 888.1296,23.3159 Q888.1296,25.4077 888.8144,26.4744 Q889.4992,27.541 890.844,27.541 Q891.4748,27.541 892.0683,27.2712 Q892.6618,27.0015 893.2927,26.4204 Z " fill="#000000"/><text fill="#CCCCCC" font-family="sans-serif" font-size="14" lengthAdjust="spacing" textLength="63.335" x="911.3196" y="28.291">Inventory</text><line style="stroke:#007ACC;stroke-width:0.5;" x1="808.78" x2="1044.6941" y1="39" y2="39"/><ellipse cx="818.78" cy="52.7441" fill="none" rx="3" ry="3" style="stroke:#038048;stroke-width:1;"/><text fill="#CCCCCC" font-family="sans-serif" font-size="14" lengthAdjust="spacing" textLength="122.4316" x="827.78" y="56.5352">items: List&lt;Item&gt;</text><line style="stroke:#007ACC;stroke-width:0.5;" x1="808.78" x2="1044.6941" y1="63.4883" y2="63.4883"/><ellipse cx="818.78" cy="77.2324" fill="#84BE84" rx="3" ry="3" style="stroke:#038048;stroke-width:1;"/><text fill="#CCCCCC" font-family="sans-serif" font-size="14" lengthAdjust="spacing" textLength="166.8857" x="827.78" y="81.0234">addItem(Item item): void</text><ellipse cx="818.78" cy="93.7207" fill="#84BE84" rx="3" ry="3" style="stroke:#038048;stroke-width:1;"/><text fill="#CCCCCC" font-family="sans-serif" font-size="14" lengthAdjust="spacing" textLength="191.7754" x="827.78" y="97.5117">removeItem(Item item): void</text><ellipse cx="818.78" cy="110.209" fill="#84BE84" rx="3" ry="3" style="stroke:#038048;stroke-width:1;"/><text fill="#CCCCCC" font-family="sans-serif" font-size="14" lengthAdjust="spacing" textLength="211.9141" x="827.78" y="114">getItemsOfType&lt;T&gt;(): List&lt;T&gt;</text></g><!--class Character--><g class="entity" data-entity="Character" data-source-line="47" data-uid="ent0009" id="entity_Character"><rect fill="#2D2D30" height="212.8828" rx="2.5" ry="2.5" style="stroke:#007ACC;stroke-width:0.5;" width="494.5215" x="679.48" y="180.95"/><ellipse cx="889.7398" cy="196.95" fill="#ADD1B2" rx="11" ry="11" style="stroke:#181818;stroke-width:1;"/><path d="M892.2129,203.0931 Q891.6319,203.3919 890.9927,203.5413 Q890.3535,203.6907 889.648,203.6907 Q887.1411,203.6907 885.8213,202.0389 Q884.5015,200.387 884.5015,197.2659 Q884.5015,194.1365 885.8213,192.4847 Q887.1411,190.8328 889.648,190.8328 Q890.3535,190.8328 891.001,190.9822 Q891.6485,191.1316 892.2129,191.4305 L892.2129,194.1531 Q891.5821,193.5721 890.9885,193.3023 Q890.395,193.0325 889.7642,193.0325 Q888.4195,193.0325 887.7346,194.0992 Q887.0498,195.1658 887.0498,197.2659 Q887.0498,199.3577 887.7346,200.4244 Q888.4195,201.491 889.7642,201.491 Q890.395,201.491 890.9885,201.2212 Q891.5821,200.9515 892.2129,200.3704 Z " fill="#000000"/><text fill="#CCCCCC" font-family="sans-serif" font-size="14" lengthAdjust="spacing" textLength="65.502" x="910.2398" y="202.241">Character</text><line style="stroke:#007ACC;stroke-width:0.5;" x1="680.48" x2="1173.0015" y1="212.95" y2="212.95"/><ellipse cx="690.48" cy="226.6941" fill="none" rx="3" ry="3" style="stroke:#038048;stroke-width:1;"/><text fill="#CCCCCC" font-family="sans-serif" font-size="14" lengthAdjust="spacing" textLength="86.1191" x="699.48" y="230.4852">name: String</text><ellipse cx="690.48" cy="243.1824" fill="none" rx="3" ry="3" style="stroke:#038048;stroke-width:1;"/><text fill="#CCCCCC" font-family="sans-serif" font-size="14" lengthAdjust="spacing" textLength="51.0918" x="699.48" y="246.9734">age: int</text><ellipse cx="690.48" cy="259.6707" fill="none" rx="3" ry="3" style="stroke:#038048;stroke-width:1;"/><text fill="#CCCCCC" font-family="sans-serif" font-size="14" lengthAdjust="spacing" textLength="195.5557" x="699.48" y="263.4617">speed: int ' movement speed</text><text fill="#CCCCCC" font-family="sans-serif" font-size="14" lengthAdjust="spacing" textLength="4.4297" x="699.48" y="279.95">&#160;</text><rect fill="none" height="6" style="stroke:#C82930;stroke-width:1;" width="6" x="687.48" y="289.6473"/><text fill="#CCCCCC" font-family="sans-serif" font-size="14" lengthAdjust="spacing" textLength="212.1875" x="699.48" y="296.4383">health: int         ' current health</text><line style="stroke:#007ACC;stroke-width:0.5;" x1="680.48" x2="1173.0015" y1="303.3914" y2="303.3914"/><rect fill="#F24D5C" height="6" style="stroke:#C82930;stroke-width:1;" width="6" x="687.48" y="314.1355"/><text fill="#CCCCCC" font-family="sans-serif" font-size="14" lengthAdjust="spacing" textLength="314.4326" x="699.48" y="320.9266">_maxHealth(): int      ' calcs depend on armour</text><text fill="#CCCCCC" font-family="sans-serif" font-size="14" lengthAdjust="spacing" textLength="4.4297" x="699.48" y="337.4148">&#160;</text><ellipse cx="690.48" cy="350.1121" fill="#84BE84" rx="3" ry="3" style="stroke:#038048;stroke-width:1;"/><text fill="#CCCCCC" font-family="sans-serif" font-size="14" lengthAdjust="spacing" textLength="468.5215" x="699.48" y="353.9031">attack(Character character): void ' abstract value depends on weapon</text><ellipse cx="690.48" cy="366.6004" fill="#84BE84" rx="3" ry="3" style="stroke:#038048;stroke-width:1;"/><text fill="#CCCCCC" font-family="sans-serif" font-size="14" lengthAdjust="spacing" textLength="160.5762" x="699.48" y="370.3914">defend(): void ' abstract</text><ellipse cx="690.48" cy="383.0887" fill="#84BE84" rx="3" ry="3" style="stroke:#038048;stroke-width:1;"/><text fill="#CCCCCC" font-family="sans-serif" font-size="14" lengthAdjust="spacing" textLength="344.75" x="699.48" y="386.8797">heal(): void ' abstract Restore health via food items</text></g><!--class Wizard--><g class="entity" data-entity="Wizard" data-source-line="60" data-uid="ent0010" id="entity_Wizard"><rect fill="#2D2D30" height="97.4648" rx="2.5" ry="2.5" style="stroke:#007ACC;stroke-width:0.5;" width="267.4658" x="507" y="453.84"/><ellipse cx="613.3228" cy="469.84" fill="#ADD1B2" rx="11" ry="11" style="stroke:#181818;stroke-width:1;"/><path d="M615.7959,475.9831 Q615.2148,476.2819 614.5757,476.4313 Q613.9365,476.5807 613.231,476.5807 Q610.7241,476.5807 609.4043,474.9289 Q608.0845,473.277 608.0845,470.1559 Q608.0845,467.0265 609.4043,465.3747 Q610.7241,463.7228 613.231,463.7228 Q613.9365,463.7228 614.584,463.8722 Q615.2314,464.0216 615.7959,464.3205 L615.7959,467.0431 Q615.165,466.4621 614.5715,466.1923 Q613.978,465.9225 613.3472,465.9225 Q612.0024,465.9225 611.3176,466.9892 Q610.6328,468.0558 610.6328,470.1559 Q610.6328,472.2477 611.3176,473.3144 Q612.0024,474.381 613.3472,474.381 Q613.978,474.381 614.5715,474.1112 Q615.165,473.8415 615.7959,473.2604 Z " fill="#000000"/><text fill="#CCCCCC" font-family="sans-serif" font-size="14" lengthAdjust="spacing" textLength="46.3203" x="633.8228" y="475.131">Wizard</text><line style="stroke:#007ACC;stroke-width:0.5;" x1="508" x2="773.4658" y1="485.84" y2="485.84"/><rect fill="none" height="6" style="stroke:#C82930;stroke-width:1;" width="6" x="515" y="496.5841"/><text fill="#CCCCCC" font-family="sans-serif" font-size="14" lengthAdjust="spacing" textLength="241.4658" x="527" y="503.3752">spell: int ' learnt spells add damage</text><ellipse cx="518" cy="516.0724" fill="none" rx="3" ry="3" style="stroke:#038048;stroke-width:1;"/><text fill="#CCCCCC" font-family="sans-serif" font-size="14" lengthAdjust="spacing" textLength="172.7168" x="527" y="519.8634">book: SpellBook ' init null</text><line style="stroke:#007ACC;stroke-width:0.5;" x1="508" x2="773.4658" y1="526.8166" y2="526.8166"/><ellipse cx="518" cy="540.5607" fill="#84BE84" rx="3" ry="3" style="stroke:#038048;stroke-width:1;"/><text fill="#CCCCCC" font-family="sans-serif" font-size="14" lengthAdjust="spacing" textLength="149.1807" x="527" y="544.3517">learn(Spell spell): void</text></g><!--class Elve--><g class="entity" data-entity="Elve" data-source-line="66" data-uid="ent0011" id="entity_Elve"><rect fill="#2D2D30" height="64.4883" rx="2.5" ry="2.5" style="stroke:#007ACC;stroke-width:0.5;" width="233.8535" x="809.81" y="470.32"/><ellipse cx="909.1464" cy="486.32" fill="#ADD1B2" rx="11" ry="11" style="stroke:#181818;stroke-width:1;"/><path d="M911.6196,492.4631 Q911.0385,492.7619 910.3994,492.9113 Q909.7602,493.0607 909.0546,493.0607 Q906.5478,493.0607 905.228,491.4089 Q903.9081,489.757 903.9081,486.6359 Q903.9081,483.5065 905.228,481.8547 Q906.5478,480.2028 909.0546,480.2028 Q909.7602,480.2028 910.4077,480.3522 Q911.0551,480.5016 911.6196,480.8005 L911.6196,483.5231 Q910.9887,482.9421 910.3952,482.6723 Q909.8017,482.4025 909.1708,482.4025 Q907.8261,482.4025 907.1413,483.4692 Q906.4565,484.5358 906.4565,486.6359 Q906.4565,488.7277 907.1413,489.7944 Q907.8261,490.861 909.1708,490.861 Q909.8017,490.861 910.3952,490.5912 Q910.9887,490.3215 911.6196,489.7404 Z " fill="#000000"/><text fill="#CCCCCC" font-family="sans-serif" font-size="14" lengthAdjust="spacing" textLength="26.6807" x="929.6464" y="491.611">Elve</text><line style="stroke:#007ACC;stroke-width:0.5;" x1="810.81" x2="1042.6635" y1="502.32" y2="502.32"/><line style="stroke:#007ACC;stroke-width:0.5;" x1="810.81" x2="1042.6635" y1="510.32" y2="510.32"/><ellipse cx="820.81" cy="524.0641" fill="#84BE84" rx="3" ry="3" style="stroke:#038048;stroke-width:1;"/><text fill="#CCCCCC" font-family="sans-serif" font-size="14" lengthAdjust="spacing" textLength="207.8535" x="829.81" y="527.8552">heal(Character character): void</text></g><!--class Dwarve--><g class="entity" data-entity="Dwarve" data-source-line="70" data-uid="ent0012" id="entity_Dwarve"><rect fill="#2D2D30" height="48" rx="2.5" ry="2.5" style="stroke:#007ACC;stroke-width:0.5;" width="81.7793" x="1078.85" y="478.57"/><ellipse cx="1093.85" cy="494.57" fill="#ADD1B2" rx="11" ry="11" style="stroke:#181818;stroke-width:1;"/><path d="M1096.3231,500.7131 Q1095.7421,501.0119 1095.1029,501.1613 Q1094.4638,501.3107 1093.7582,501.3107 Q1091.2514,501.3107 1089.9315,499.6589 Q1088.6117,498.007 1088.6117,494.8859 Q1088.6117,491.7565 1089.9315,490.1047 Q1091.2514,488.4528 1093.7582,488.4528 Q1094.4638,488.4528 1095.1112,488.6022 Q1095.7587,488.7516 1096.3231,489.0505 L1096.3231,491.7731 Q1095.6923,491.1921 1095.0988,490.9223 Q1094.5053,490.6525 1093.8744,490.6525 Q1092.5297,490.6525 1091.8449,491.7192 Q1091.1601,492.7858 1091.1601,494.8859 Q1091.1601,496.9777 1091.8449,498.0444 Q1092.5297,499.111 1093.8744,499.111 Q1094.5053,499.111 1095.0988,498.8412 Q1095.6923,498.5715 1096.3231,497.9904 Z " fill="#000000"/><text fill="#CCCCCC" font-family="sans-serif" font-size="14" lengthAdjust="spacing" textLength="49.7793" x="1107.85" y="499.861">Dwarve</text><line style="stroke:#007ACC;stroke-width:0.5;" x1="1079.85" x2="1159.6293" y1="510.57" y2="510.57"/><line style="stroke:#007ACC;stroke-width:0.5;" x1="1079.85" x2="1159.6293" y1="518.57" y2="518.57"/></g><!--link Inventory to Character--><g class="link" data-entity-1="Inventory" data-entity-2="Character" data-source-line="73" data-uid="lnk13" id="link_Inventory_Character"><path codeLine="73" d="M926.74,121.42 C926.74,139.49 926.74,142.11 926.74,162.52" fill="none" id="Inventory-to-Character" style="stroke:#00CCFF;stroke-width:1;"/><polygon fill="none" points="926.74,180.52,932.74,162.52,920.74,162.52,926.74,180.52" style="stroke:#00CCFF;stroke-width:1;"/></g><!--link Character to Wizard--><g class="link" data-entity-1="Character" data-entity-2="Wizard" data-source-line="75" data-uid="lnk14" id="link_Character_Wizard"><path codeLine="75" d="M784.99,394.04 C757.04,414.88 743.4612,425.0017 719.6512,442.7517" fill="none" id="Character-to-Wizard" style="stroke:#00CCFF;stroke-width:1;"/><polygon fill="none" points="705.22,453.51,723.2373,447.5621,716.0651,437.9413,705.22,453.51" style="stroke:#00CCFF;stroke-width:1;"/></g><!--link Character to Elve--><g class="link" data-entity-1="Character" data-entity-2="Elve" data-source-line="76" data-uid="lnk15" id="link_Character_Elve"><path codeLine="76" d="M926.74,394.04 C926.74,421.89 926.74,431.83 926.74,452.24" fill="none" id="Character-to-Elve" style="stroke:#00CCFF;stroke-width:1;"/><polygon fill="none" points="926.74,470.24,932.74,452.24,920.74,452.24,926.74,470.24" style="stroke:#00CCFF;stroke-width:1;"/></g><!--link Character to Dwarve--><g class="link" data-entity-1="Character" data-entity-2="Dwarve" data-source-line="77" data-uid="lnk16" id="link_Character_Dwarve"><path codeLine="77" d="M1022.39,394.04 C1051.01,425.66 1067.6592,444.0463 1086.4092,464.7563" fill="none" id="Character-to-Dwarve" style="stroke:#00CCFF;stroke-width:1;"/><polygon fill="none" points="1098.49,478.1,1090.8571,460.7294,1081.9613,468.7833,1098.49,478.1" style="stroke:#00CCFF;stroke-width:1;"/></g><!--link Item to SpellBook--><g class="link" data-entity-1="Item" data-entity-2="SpellBook" data-source-line="79" data-uid="lnk17" id="link_Item_SpellBook"><path codeLine="79" d="M395.85,113.2 C423.91,132.84 455.4,156.63 481.74,180.95 C506.31,203.65 519.6129,218.6334 536.8029,240.5234" fill="none" id="Item-to-SpellBook" style="stroke:#00CCFF;stroke-width:1;"/><polygon fill="none" points="547.92,254.68,541.5218,236.8177,532.084,244.229,547.92,254.68" style="stroke:#00CCFF;stroke-width:1;"/></g><!--link Item to SpellWeapon--><g class="link" data-entity-1="Item" data-entity-2="SpellWeapon" data-source-line="80" data-uid="lnk18" id="link_Item_SpellWeapon"><path codeLine="80" d="M292.01,113.02 C263.36,159.32 230.7025,212.104 208.7325,247.604" fill="none" id="Item-to-SpellWeapon" style="stroke:#00CCFF;stroke-width:1;"/><polygon fill="none" points="199.26,262.91,213.8344,250.7615,203.6305,244.4465,199.26,262.91" style="stroke:#00CCFF;stroke-width:1;"/></g><!--link Item to Weapon--><g class="link" data-entity-1="Item" data-entity-2="Weapon" data-source-line="81" data-uid="lnk19" id="link_Item_Weapon"><path codeLine="81" d="M321.74,113.02 C321.74,159.32 321.74,209.41 321.74,244.91" fill="none" id="Item-to-Weapon" style="stroke:#00CCFF;stroke-width:1;"/><polygon fill="none" points="321.74,262.91,327.74,244.91,315.74,244.91,321.74,262.91" style="stroke:#00CCFF;stroke-width:1;"/></g><!--link Item to Armour--><g class="link" data-entity-1="Item" data-entity-2="Armour" data-source-line="82" data-uid="lnk20" id="link_Item_Armour"><path codeLine="82" d="M206.08,113.09 C172.05,130.96 136.53,153.67 108.74,180.95 C84.69,204.56 74.204,223.2333 64.524,246.3833" fill="none" id="Item-to-Armour" style="stroke:#00CCFF;stroke-width:1;"/><polygon fill="none" points="57.58,262.99,70.0595,248.698,58.9884,244.0687,57.58,262.99" style="stroke:#00CCFF;stroke-width:1;"/></g><!--link Item to Spell--><g class="link" data-entity-1="Item" data-entity-2="Spell" data-source-line="83" data-uid="lnk21" id="link_Item_Spell"><path codeLine="83" d="M347.07,113.03 C357.91,133.83 370.61,158.51 381.74,180.95 C395.68,209.09 403.4802,225.4884 413.4502,246.9284" fill="none" id="Item-to-Spell" style="stroke:#00CCFF;stroke-width:1;"/><polygon fill="none" points="421.04,263.25,418.8907,244.3985,408.0096,249.4584,421.04,263.25" style="stroke:#00CCFF;stroke-width:1;"/></g><!--SRC=[VLFRQXin47tVhnZ8WnsAmKaV2YOO73kXWKAXCUInZ5VZzMAjP2JjEcxQVwykivVORUGNxvapHsSk6i4ApHugBGWscEyBesibChilrG4DLWDmgQKsS7Np47u3Xg0jrjAjwTKnPHbFbetWsPqamTQ3kKHhoGxo8W9l6VXpVtxBxUfszNcQOje8CenFfryMNZhWZrgr5px6mwXsP0OnDXDY2-TCkQaTNOR_l7UBnkZZqEmY09s7vTBVbgK2dXnLNCKLAAnevdLCgGg615POUB1KhaLeIofF48p07aZA5WGiYc0cQIzCfMlZrQCzhUG9ZeG7hU1O_a8Z84S5jIMcFmUbbqXe5T9NKXYGBe1xhVTSnQVaQ0RVIklkOdJUivzKGyffS-hOfM-0PNPenfnn529yZcE30kbw1eqk1OSDLRgXZnW5kH2ntxVhqu7krlFnDL-pdgUEuCOwWxbZRyiTXYyodRUBUNXRms74MacqemYEAbzUGhD8cS2EKBfTuhHd17bjJA2cA5D_LlZwDGB1QvVWsIXpwuTy82Ny8Fs2XSbchIVd_0COz_xpzXzt1FfQeK5P4qlPe9LMWgNY7ednPHx7Wzr_HE47MJzLudAWAT4_12tITFlnlwIzU-DwULDIzoIXIRsJqeRny-u3NxtnEpORhDl8vvKEL2qbCwB2E6reb6aNehl_GJRKJJVMyl-czLch8vgOvv5-WIUJt_D-PxAiLugHLEev6WoSOqdUIuSzZaXNv3d6hxD7Bu3qvi_p_W80]--></g></svg>